<svg xmlns="http://www.w3.org/2000/svg" viewBox="0 0 24 24"><path d="M20.5 3.5A11 11 0 0 0 3.2 18.6L2 22l3.5-1.2A11 11 0 1 0 20.5 3.5zM12 20a8 8 0 0 1-4.2-1.2l-.3-.2-2.5.8.8-2.4-.3-.4A8 8 0 1 1 12 20zm4.6-5.8c-.2-.1-1.2-.6-1.4-.7-.2-.1-.3-.1-.5.1-.1.2-.6.7-.7.8-.1.1-.3.1-.5 0-.2-.1-1-.4-1.9-1.3-.7-.6-1.3-1.5-1.4-1.7-.1-.2 0-.3.1-.5.1-.1.2-.3.3-.4.1-.1.1-.2.2-.4.1-.2 0-.3 0-.4 0-.1-.5-1.2-.7-1.6-.2-.4-.4-.3-.5-.3h-.4c-.1 0-.4.1-.6.3-.2.2-.8.8-.8 1.9s.9 2.3 1 2.5c.1.2 1.7 2.6 4.1 3.6.6.2 1 .3 1.4.4.6.2 1.2.2 1.7.1.5-.1 1.2-.5 1.3-1 .2-.5.2-.9.1-1 0 0-.2-.1-.4-.2z"/></svg>